<?xml version="1.0" encoding="UTF-8" standalone="no"?>
<!DOCTYPE svg PUBLIC "-//W3C//DTD SVG 1.1//EN" "http://www.w3.org/Graphics/SVG/1.1/DTD/svg11.dtd">
<svg width="100%" height="100%" viewBox="0 0 57 57" version="1.1" xmlns="http://www.w3.org/2000/svg" xmlns:xlink="http://www.w3.org/1999/xlink" xml:space="preserve" style="fill-rule:evenodd;clip-rule:evenodd;stroke-linejoin:round;stroke-miterlimit:1.41421;">
    <g>
        <path d="M43.911,28.21L12.782,28.21C7.834,28.21 3.823,32.225 3.823,37.172L3.823,44.373C3.823,49.32 7.834,53.334 12.782,53.334L43.911,53.334C48.858,53.334 52.87,49.32 52.87,44.373L52.87,37.172C52.87,32.225 48.858,28.21 43.911,28.21ZM19.322,33.816L16.428,33.816L16.428,48.196L13.632,48.196L13.632,33.816L10.74,33.816L10.74,31.37L19.322,31.37L19.322,33.816ZM27.497,48.196L25.017,48.196L25.017,46.836C24.556,47.339 24.081,47.723 23.585,47.982C23.089,48.252 22.61,48.378 22.144,48.378C21.568,48.378 21.14,48.195 20.847,47.823C20.559,47.452 20.412,46.902 20.412,46.159L20.412,35.782L22.892,35.782L22.892,45.305C22.892,45.599 22.947,45.81 23.046,45.941C23.153,46.076 23.323,46.138 23.556,46.138C23.736,46.138 23.968,46.052 24.247,45.878C24.528,45.702 24.784,45.482 25.017,45.21L25.017,35.781L27.497,35.781L27.497,48.196ZM36.501,45.633C36.501,46.51 36.306,47.184 35.917,47.654C35.53,48.124 34.964,48.355 34.231,48.355C33.743,48.355 33.309,48.267 32.932,48.085C32.553,47.905 32.196,47.628 31.871,47.244L31.871,48.195L29.361,48.195L29.361,31.37L31.871,31.37L31.871,36.789C32.207,36.414 32.562,36.123 32.933,35.928C33.312,35.729 33.693,35.633 34.079,35.633C34.864,35.633 35.462,35.895 35.876,36.424C36.292,36.953 36.499,37.728 36.499,38.744L36.499,45.633L36.501,45.633ZM45.104,42.288L40.358,42.288L40.358,44.627C40.358,45.279 40.438,45.733 40.6,45.986C40.766,46.24 41.045,46.364 41.442,46.364C41.854,46.364 42.139,46.257 42.305,46.043C42.465,45.827 42.551,45.357 42.551,44.627L42.551,44.062L45.104,44.062L45.104,44.699C45.104,45.971 44.795,46.93 44.168,47.577C43.551,48.218 42.621,48.536 41.385,48.536C40.272,48.536 39.395,48.197 38.758,47.515C38.123,46.837 37.799,45.896 37.799,44.7L37.799,39.124C37.799,38.051 38.153,37.168 38.856,36.491C39.557,35.814 40.46,35.476 41.571,35.476C42.708,35.476 43.581,35.789 44.19,36.417C44.799,37.046 45.104,37.946 45.104,39.123L45.104,42.288Z" style="fill:black;fill-rule:nonzero;"/>
        <path d="M41.466,37.646C41.07,37.646 40.788,37.757 40.616,37.989C40.44,38.207 40.358,38.58 40.358,39.101L40.358,40.356L42.551,40.356L42.551,39.101C42.551,38.58 42.463,38.206 42.289,37.989C42.122,37.758 41.843,37.646 41.466,37.646Z" style="fill:black;fill-rule:nonzero;"/>
        <path d="M32.909,37.604C32.733,37.604 32.555,37.643 32.384,37.724C32.21,37.803 32.04,37.934 31.872,38.104L31.872,45.837C32.071,46.037 32.268,46.191 32.46,46.279C32.651,46.364 32.849,46.412 33.06,46.412C33.365,46.412 33.587,46.324 33.73,46.146C33.871,45.97 33.943,45.689 33.943,45.292L33.943,38.881C33.943,38.459 33.859,38.143 33.683,37.926C33.501,37.712 33.243,37.604 32.909,37.604Z" style="fill:black;fill-rule:nonzero;"/>
        <path d="M16.858,23.898L20.002,23.898L20.002,16.208L23.663,5.36L20.467,5.36L18.521,12.77L18.323,12.77L16.28,5.36L13.113,5.36L16.858,16.554L16.858,23.898Z" style="fill:black;fill-rule:nonzero;"/>
        <path d="M27.923,24.243C29.193,24.243 30.189,23.91 30.915,23.244C31.636,22.575 31.997,21.662 31.997,20.492L31.997,13.428C31.997,12.387 31.628,11.53 30.893,10.869C30.153,10.21 29.205,9.878 28.049,9.878C26.779,9.878 25.768,10.192 25.016,10.819C24.266,11.446 23.889,12.287 23.889,13.35L23.889,20.438C23.889,21.601 24.256,22.521 24.989,23.211C25.722,23.898 26.702,24.243 27.923,24.243ZM26.765,13.246C26.765,12.949 26.872,12.709 27.081,12.521C27.298,12.337 27.573,12.248 27.915,12.248C28.284,12.248 28.583,12.337 28.811,12.521C29.038,12.709 29.151,12.949 29.151,13.246L29.151,20.697C29.151,21.062 29.04,21.352 28.815,21.561C28.592,21.771 28.292,21.874 27.915,21.874C27.546,21.874 27.261,21.774 27.061,21.564C26.864,21.359 26.764,21.071 26.764,20.696L26.764,13.246L26.765,13.246Z" style="fill:black;fill-rule:nonzero;"/>
        <path d="M36.214,24.098C36.739,24.098 37.278,23.948 37.833,23.66C38.394,23.368 38.931,22.941 39.442,22.384L39.442,23.899L42.235,23.899L42.235,10.224L39.442,10.224L39.442,20.604C39.182,20.901 38.893,21.145 38.583,21.339C38.267,21.531 38.007,21.627 37.802,21.627C37.54,21.627 37.347,21.555 37.234,21.406C37.119,21.263 37.054,21.029 37.054,20.708L37.054,10.224L34.265,10.224L34.265,21.653C34.265,22.468 34.429,23.077 34.753,23.481C35.083,23.891 35.565,24.098 36.214,24.098Z" style="fill:black;fill-rule:nonzero;"/>
    </g>
</svg>
