<?xml version="1.0" encoding="UTF-8" standalone="no"?>
<!DOCTYPE svg PUBLIC "-//W3C//DTD SVG 1.1//EN" "http://www.w3.org/Graphics/SVG/1.1/DTD/svg11.dtd">
<svg width="100%" height="100%" viewBox="0 0 57 57" version="1.1" xmlns="http://www.w3.org/2000/svg" xmlns:xlink="http://www.w3.org/1999/xlink" xml:space="preserve" style="fill-rule:evenodd;clip-rule:evenodd;stroke-linejoin:round;stroke-miterlimit:1.41421;">
    <path d="M28.341,3.813C14.748,3.813 3.728,14.832 3.728,28.425C3.728,42.018 14.748,53.038 28.341,53.038C41.935,53.038 52.954,42.018 52.954,28.425C52.954,14.832 41.935,3.813 28.341,3.813ZM38.326,40.04C37.929,40.04 37.657,39.902 37.285,39.675C33.717,37.517 29.27,36.383 24.549,36.383C21.915,36.383 19.265,36.72 16.786,37.236C16.383,37.324 15.875,37.48 15.572,37.48C14.638,37.48 14.014,36.737 14.014,35.933C14.014,34.898 14.611,34.384 15.353,34.242C18.393,33.549 21.421,33.154 24.566,33.154C29.951,33.154 34.752,34.389 38.882,36.865C39.497,37.224 39.857,37.59 39.857,38.501C39.857,39.388 39.136,40.04 38.326,40.04ZM41.008,33.525C40.474,33.525 40.138,33.31 39.775,33.099C35.772,30.723 30.223,29.144 24.146,29.144C21.029,29.144 18.339,29.58 16.113,30.173C15.633,30.305 15.364,30.447 14.915,30.447C13.856,30.447 12.992,29.585 12.992,28.518C12.992,27.471 13.5,26.75 14.523,26.462C17.29,25.702 20.115,25.116 24.228,25.116C30.67,25.116 36.903,26.721 41.803,29.653C42.624,30.124 42.927,30.722 42.927,31.598C42.927,32.664 42.078,33.525 41.008,33.525ZM44.062,25.949C43.561,25.949 43.263,25.827 42.794,25.57C38.339,22.899 31.425,21.428 24.739,21.428C21.402,21.428 18.012,21.767 14.907,22.609C14.549,22.699 14.097,22.879 13.644,22.879C12.332,22.879 11.324,21.84 11.324,20.527C11.324,19.189 12.153,18.438 13.048,18.174C16.556,17.141 20.472,16.659 24.73,16.659C31.957,16.659 39.561,18.146 45.116,21.408C45.864,21.832 46.384,22.471 46.384,23.643C46.384,24.985 45.305,25.949 44.062,25.949Z" style="fill:rgb(218,219,220);fill-rule:nonzero;"/>
</svg>
